<svg version="1.1" id="Layer_1" xmlns="http://www.w3.org/2000/svg" xmlns:xlink="http://www.w3.org/1999/xlink" x="0px" y="0px"
	 width="100%" viewBox="0 0 512 512" enable-background="new 0 0 512 512" xml:space="preserve">
<path fill="#000000" opacity="1.000000" stroke="none" 
	d="
M202.000000,513.000000 
	C135.028931,513.000000 68.057854,513.000000 1.043388,513.000000 
	C1.043388,342.435944 1.043388,171.871887 1.043388,1.000000 
	C98.355133,1.000000 195.710587,1.000000 293.832092,1.350340 
	C290.621948,2.801075 286.656677,3.942948 282.667755,4.995246 
	C252.933899,12.839191 230.296326,29.767790 215.994659,57.253586 
	C206.391327,75.709824 202.632004,95.696503 202.125107,116.209908 
	C201.573837,138.519211 202.000000,160.852676 202.000000,183.175598 
	C202.000000,184.755585 202.000000,186.335556 202.000000,188.295349 
	C175.567932,188.295349 149.835419,188.295349 124.331207,188.295349 
	C124.331207,219.080582 124.331207,249.476761 124.331207,280.257324 
	C150.393616,280.257324 176.125946,280.257324 202.000000,280.257324 
	C202.000000,358.097076 202.000000,435.548553 202.000000,513.000000 
z"/>
<path fill="#000000" opacity="1.000000" stroke="none" 
	d="
M373.000000,1.000000 
	C419.643158,1.000000 466.286285,1.000000 512.964722,1.000000 
	C512.964722,171.557129 512.964722,342.114258 512.964722,513.000000 
	C441.312775,513.000000 369.625031,513.000000 297.468658,512.531372 
	C297.000000,434.799774 297.000000,357.536835 297.000000,279.885986 
	C323.597839,279.885986 349.679840,279.885986 375.527039,279.885986 
	C379.479126,249.073883 383.378540,218.672256 387.344604,187.751190 
	C356.603180,187.751190 326.866211,187.751190 298.000153,187.751190 
	C298.000153,164.103607 297.570435,140.858109 298.173767,117.639465 
	C298.495972,105.240387 306.265503,94.251251 319.357819,89.724770 
	C328.458710,86.578262 337.699188,86.791504 346.834290,86.230911 
	C361.060303,85.357918 375.379272,86.000000 389.794067,86.000000 
	C389.794067,58.464676 389.794067,31.377611 389.794067,3.936535 
	C384.894440,3.616059 380.168030,3.399890 375.469055,2.916615 
	C374.589630,2.826169 373.820190,1.666335 373.000000,1.000000 
z"/>
<path fill="#FFFFFF" opacity="1.000000" stroke="none" 
	d="
M372.531342,1.000000 
	C373.820190,1.666335 374.589630,2.826169 375.469055,2.916615 
	C380.168030,3.399890 384.894440,3.616059 389.794067,3.936535 
	C389.794067,31.377611 389.794067,58.464676 389.794067,86.000000 
	C375.379272,86.000000 361.060303,85.357918 346.834290,86.230911 
	C337.699188,86.791504 328.458710,86.578262 319.357819,89.724770 
	C306.265503,94.251251 298.495972,105.240387 298.173767,117.639465 
	C297.570435,140.858109 298.000153,164.103607 298.000153,187.751190 
	C326.866211,187.751190 356.603180,187.751190 387.344604,187.751190 
	C383.378540,218.672256 379.479126,249.073883 375.527039,279.885986 
	C349.679840,279.885986 323.597839,279.885986 297.000000,279.885986 
	C297.000000,357.536835 297.000000,434.799774 297.000000,512.531372 
	C265.645782,513.000000 234.291550,513.000000 202.468658,513.000000 
	C202.000000,435.548553 202.000000,358.097076 202.000000,280.257324 
	C176.125946,280.257324 150.393616,280.257324 124.331207,280.257324 
	C124.331207,249.476761 124.331207,219.080582 124.331207,188.295349 
	C149.835419,188.295349 175.567932,188.295349 202.000000,188.295349 
	C202.000000,186.335556 202.000000,184.755585 202.000000,183.175598 
	C202.000000,160.852676 201.573837,138.519211 202.125107,116.209908 
	C202.632004,95.696503 206.391327,75.709824 215.994659,57.253586 
	C230.296326,29.767790 252.933899,12.839191 282.667755,4.995246 
	C286.656677,3.942948 290.621948,2.801075 294.299072,1.350340 
	C320.020905,1.000000 346.041779,1.000000 372.531342,1.000000 
z"/>
</svg>