<svg version="1.1" id="Layer_1" xmlns="http://www.w3.org/2000/svg" xmlns:xlink="http://www.w3.org/1999/xlink" x="0px" y="0px"
	 width="100%" viewBox="0 0 512 512" enable-background="new 0 0 512 512" xml:space="preserve">
<path fill="#FFFFFF" opacity="1.000000" stroke="none" 
	d="
M1.000008,396.000000 
	C1.000000,303.645782 1.000000,211.291550 1.350338,118.767761 
	C2.467267,116.034866 3.387290,113.506287 3.977083,110.902901 
	C11.083505,79.534622 27.187689,53.471970 51.733761,33.036335 
	C70.512779,17.402012 92.135117,6.954031 116.535645,2.917233 
	C117.113663,2.821606 117.515816,1.662871 118.000000,0.999999 
	C210.354233,1.000000 302.708466,1.000000 395.232239,1.350342 
	C397.965210,2.467272 400.493195,3.391187 403.097321,3.976495 
	C434.495850,11.033683 460.500458,27.245083 480.957550,51.738590 
	C496.620667,70.492233 507.045563,92.135078 511.082733,116.535629 
	C511.178375,117.113670 512.337097,117.515816 513.000000,118.000000 
	C513.000000,210.354233 513.000000,302.708466 512.649658,395.232239 
	C511.879883,395.893829 511.177277,396.336365 511.081543,396.884888 
	C505.718628,427.608032 491.462982,453.417755 468.778992,474.801239 
	C448.247040,494.156097 424.373138,506.546051 396.465637,511.084412 
	C395.888519,511.178253 395.484680,512.337708 395.000000,513.000000 
	C303.312439,513.000000 211.624878,513.000000 119.768898,512.642944 
	C116.699951,511.523773 113.819382,510.673187 110.895805,510.013123 
	C79.519981,502.929382 53.537472,486.706238 33.029343,462.266052 
	C17.304583,443.526367 7.008636,421.838074 2.917441,397.464325 
	C2.820235,396.885223 1.662886,396.484100 1.000008,396.000000 
M152.500275,467.000000 
	C226.819550,467.000000 301.139435,467.138397 375.457245,466.809479 
	C383.910431,466.772064 392.641693,465.031891 400.741089,462.483093 
	C420.033661,456.412018 435.620453,444.639862 447.882477,428.577606 
	C460.113068,412.556366 466.828247,394.330383 466.894409,374.246002 
	C467.152954,295.761688 467.037842,217.275940 466.961121,138.790817 
	C466.948975,126.337433 463.561859,114.513351 458.595642,103.209953 
	C451.734955,87.594681 440.831787,74.976738 427.267181,64.978828 
	C412.003082,53.728348 394.564819,47.170937 375.497314,47.107769 
	C297.512878,46.849430 219.526382,46.840645 141.542816,47.204704 
	C131.957047,47.249458 122.122627,49.176273 112.859177,51.824871 
	C92.544342,57.633263 76.705353,70.540405 64.514641,87.310837 
	C52.987309,103.168678 47.000050,121.377190 47.000031,141.254120 
	C46.999954,216.739868 47.072712,292.225769 46.928917,367.711243 
	C46.904762,380.393677 48.586376,392.604858 52.959991,404.534210 
	C61.353661,427.428680 76.814804,444.212158 97.800751,455.882172 
	C114.411194,465.119049 132.613419,468.053772 152.500275,467.000000 
z"/>
<path fill="#000000" opacity="1.000000" stroke="none" 
	d="
M395.468658,513.000000 
	C395.484680,512.337708 395.888519,511.178253 396.465637,511.084412 
	C424.373138,506.546051 448.247040,494.156097 468.778992,474.801239 
	C491.462982,453.417755 505.718628,427.608032 511.081543,396.884888 
	C511.177277,396.336365 511.879883,395.893829 512.649658,395.700928 
	C513.000000,434.927277 513.000000,473.854523 513.000000,513.000000 
	C473.979370,513.000000 434.958344,513.000000 395.468658,513.000000 
z"/>
<path fill="#000000" opacity="1.000000" stroke="none" 
	d="
M1.000008,396.468628 
	C1.662886,396.484100 2.820235,396.885223 2.917441,397.464325 
	C7.008636,421.838074 17.304583,443.526367 33.029343,462.266052 
	C53.537472,486.706238 79.519981,502.929382 110.895805,510.013123 
	C113.819382,510.673187 116.699951,511.523773 119.300240,512.642944 
	C79.740021,513.000000 40.480034,513.000000 1.000000,513.000000 
	C1.000000,474.312714 1.000000,435.625031 1.000008,396.468628 
z"/>
<path fill="#000000" opacity="1.000000" stroke="none" 
	d="
M513.000000,117.531342 
	C512.337097,117.515816 511.178375,117.113670 511.082733,116.535629 
	C507.045563,92.135078 496.620667,70.492233 480.957550,51.738590 
	C460.500458,27.245083 434.495850,11.033683 403.097321,3.976495 
	C400.493195,3.391187 397.965210,2.467272 395.700928,1.350342 
	C434.926971,1.000000 473.853912,1.000000 513.000000,1.000000 
	C513.000000,39.687286 513.000000,78.374985 513.000000,117.531342 
z"/>
<path fill="#000000" opacity="1.000000" stroke="none" 
	d="
M117.531342,0.999999 
	C117.515816,1.662871 117.113663,2.821606 116.535645,2.917233 
	C92.135117,6.954031 70.512779,17.402012 51.733761,33.036335 
	C27.187689,53.471970 11.083505,79.534622 3.977083,110.902901 
	C3.387290,113.506287 2.467267,116.034866 1.350338,118.299103 
	C1.000000,79.073036 1.000000,40.146072 1.000000,1.000000 
	C39.687286,1.000000 78.374985,1.000000 117.531342,0.999999 
z"/>
<path fill="#000000" opacity="1.000000" stroke="none" 
	d="
M152.000397,467.000000 
	C132.613419,468.053772 114.411194,465.119049 97.800751,455.882172 
	C76.814804,444.212158 61.353661,427.428680 52.959991,404.534210 
	C48.586376,392.604858 46.904762,380.393677 46.928917,367.711243 
	C47.072712,292.225769 46.999954,216.739868 47.000031,141.254120 
	C47.000050,121.377190 52.987309,103.168678 64.514641,87.310837 
	C76.705353,70.540405 92.544342,57.633263 112.859177,51.824871 
	C122.122627,49.176273 131.957047,47.249458 141.542816,47.204704 
	C219.526382,46.840645 297.512878,46.849430 375.497314,47.107769 
	C394.564819,47.170937 412.003082,53.728348 427.267181,64.978828 
	C440.831787,74.976738 451.734955,87.594681 458.595642,103.209953 
	C463.561859,114.513351 466.948975,126.337433 466.961121,138.790817 
	C467.037842,217.275940 467.152954,295.761688 466.894409,374.246002 
	C466.828247,394.330383 460.113068,412.556366 447.882477,428.577606 
	C435.620453,444.639862 420.033661,456.412018 400.741089,462.483093 
	C392.641693,465.031891 383.910431,466.772064 375.457245,466.809479 
	C301.139435,467.138397 226.819550,467.000000 152.000397,467.000000 
M359.539185,340.975494 
	C360.619415,339.555298 361.697479,338.133453 362.780212,336.715149 
	C377.720001,317.145508 386.554626,294.913879 388.750885,270.604797 
	C390.505402,251.185226 388.964447,231.757690 382.050110,213.057953 
	C375.334930,194.896896 365.902344,178.365768 352.075775,164.903824 
	C343.625885,156.676758 334.099854,149.274261 324.141815,142.940506 
	C307.763428,132.523102 289.396362,126.695435 270.060150,125.200775 
	C259.734528,124.402611 249.227768,125.352890 238.842072,126.077591 
	C225.849991,126.984161 213.666489,131.271576 201.914780,136.616562 
	C181.552338,145.877914 164.533920,159.366074 151.089157,177.369171 
	C136.372528,197.075378 127.313385,219.153336 125.220894,243.519684 
	C123.551117,262.963623 125.046333,282.390411 131.989105,301.057678 
	C143.441727,331.850769 162.914307,355.860321 191.582275,372.128662 
	C217.498749,386.835510 245.289352,391.687225 274.823822,388.079437 
	C294.910034,385.625824 313.134308,378.553619 329.905212,367.535950 
	C340.884888,360.322906 350.873047,351.907715 359.539185,340.975494 
M428.000000,117.630875 
	C427.329773,114.166489 427.144226,110.517731 425.908203,107.268578 
	C419.426605,90.229988 400.335938,82.195312 384.001343,87.590134 
	C369.535095,92.367905 360.538452,105.638802 360.819580,121.018898 
	C361.260681,145.153275 386.773499,160.875916 408.728363,150.582336 
	C421.986237,144.366379 428.440247,133.373245 428.000000,117.630875 
z"/>
<path fill="#FFFFFF" opacity="1.000000" stroke="none" 
	d="
M359.276642,341.226501 
	C350.873047,351.907715 340.884888,360.322906 329.905212,367.535950 
	C313.134308,378.553619 294.910034,385.625824 274.823822,388.079437 
	C245.289352,391.687225 217.498749,386.835510 191.582275,372.128662 
	C162.914307,355.860321 143.441727,331.850769 131.989105,301.057678 
	C125.046333,282.390411 123.551117,262.963623 125.220894,243.519684 
	C127.313385,219.153336 136.372528,197.075378 151.089157,177.369171 
	C164.533920,159.366074 181.552338,145.877914 201.914780,136.616562 
	C213.666489,131.271576 225.849991,126.984161 238.842072,126.077591 
	C249.227768,125.352890 259.734528,124.402611 270.060150,125.200775 
	C289.396362,126.695435 307.763428,132.523102 324.141815,142.940506 
	C334.099854,149.274261 343.625885,156.676758 352.075775,164.903824 
	C365.902344,178.365768 375.334930,194.896896 382.050110,213.057953 
	C388.964447,231.757690 390.505402,251.185226 388.750885,270.604797 
	C386.554626,294.913879 377.720001,317.145508 362.780212,336.715149 
	C361.697479,338.133453 360.619415,339.555298 359.276642,341.226501 
M291.251801,335.969879 
	C303.466064,329.681152 314.643219,322.239502 323.400635,311.248901 
	C339.735535,290.748505 346.332336,267.524048 341.722198,242.001419 
	C338.047974,221.660141 328.075928,204.275513 311.556671,190.930420 
	C291.167664,174.459167 268.020203,167.678543 242.445053,172.240982 
	C219.712891,176.296265 200.958527,187.836670 187.310562,207.104843 
	C173.475021,226.637802 168.008575,248.276260 172.231262,271.607513 
	C175.918137,291.978210 185.768188,309.285431 202.127075,322.830383 
	C216.182861,334.468353 232.181396,341.002960 249.975998,342.839874 
	C263.908630,344.278076 277.537994,341.689575 291.251801,335.969879 
z"/>
<path fill="#FFFFFF" opacity="1.000000" stroke="none" 
	d="
M428.000000,118.099899 
	C428.440247,133.373245 421.986237,144.366379 408.728363,150.582336 
	C386.773499,160.875916 361.260681,145.153275 360.819580,121.018898 
	C360.538452,105.638802 369.535095,92.367905 384.001343,87.590134 
	C400.335938,82.195312 419.426605,90.229988 425.908203,107.268578 
	C427.144226,110.517731 427.329773,114.166489 428.000000,118.099899 
z"/>
<path fill="#000000" opacity="1.000000" stroke="none" 
	d="
M290.854553,335.985291 
	C277.537994,341.689575 263.908630,344.278076 249.975998,342.839874 
	C232.181396,341.002960 216.182861,334.468353 202.127075,322.830383 
	C185.768188,309.285431 175.918137,291.978210 172.231262,271.607513 
	C168.008575,248.276260 173.475021,226.637802 187.310562,207.104843 
	C200.958527,187.836670 219.712891,176.296265 242.445053,172.240982 
	C268.020203,167.678543 291.167664,174.459167 311.556671,190.930420 
	C328.075928,204.275513 338.047974,221.660141 341.722198,242.001419 
	C346.332336,267.524048 339.735535,290.748505 323.400635,311.248901 
	C314.643219,322.239502 303.466064,329.681152 290.854553,335.985291 
z"/>
</svg>