<?xml version="1.0" standalone="no"?>
<!DOCTYPE svg PUBLIC "-//W3C//DTD SVG 20010904//EN"
 "http://www.w3.org/TR/2001/REC-SVG-20010904/DTD/svg10.dtd">
<svg version="1.0" xmlns="http://www.w3.org/2000/svg"
 width="512.000000pt" height="512.000000pt" viewBox="0 0 512.000000 512.000000"
 preserveAspectRatio="xMidYMid meet">

<g transform="translate(0.000000,512.000000) scale(0.100000,-0.100000)"
fill="#000000" stroke="none">
<path d="M2390 5110 c-717 -83 -1287 -593 -1440 -1288 -33 -149 -45 -333 -31
-484 20 -229 62 -380 161 -583 83 -168 1354 -2151 1400 -2182 42 -29 112 -31
156 -4 23 14 121 159 355 523 177 276 476 742 663 1033 187 292 361 573 387
625 234 475 220 1045 -38 1513 -244 441 -671 746 -1168 832 -110 19 -343 27
-445 15z m385 -920 c246 -78 429 -261 507 -510 33 -108 33 -311 0 -420 -77
-246 -266 -435 -512 -512 -109 -33 -312 -33 -420 0 -249 78 -433 261 -510 507
-30 95 -38 264 -17 362 33 154 96 270 208 382 108 108 225 173 373 207 90 20
281 12 371 -16z"/>
<path d="M1215 1626 c-629 -183 -956 -475 -896 -801 56 -304 454 -558 1101
-703 361 -81 702 -116 1140 -116 448 0 793 36 1159 121 641 147 1027 396 1082
698 45 247 -134 479 -505 655 -187 89 -546 205 -566 183 -4 -4 -180 -278 -391
-608 -255 -399 -400 -617 -434 -651 -66 -66 -176 -120 -275 -135 -151 -23
-314 31 -419 140 -39 40 -175 243 -441 659 -211 331 -389 602 -395 602 -5 -1
-77 -20 -160 -44z"/>
</g>
</svg>
