<svg version="1.1" id="Layer_1" xmlns="http://www.w3.org/2000/svg" xmlns:xlink="http://www.w3.org/1999/xlink" x="0px" y="0px"
	 width="100%" viewBox="0 0 512 512" enable-background="new 0 0 512 512" xml:space="preserve">
<path fill="#000000" opacity="1.000000" stroke="none" 
	d="
M346.000000,513.000000 
	C230.694687,513.000000 115.889366,513.000000 1.042022,513.000000 
	C1.042022,342.402985 1.042022,171.805969 1.042022,1.104477 
	C171.555328,1.104477 342.110718,1.104477 512.833069,1.104477 
	C512.833069,171.666534 512.833069,342.333252 512.833069,513.000000 
	C457.472565,513.000000 401.986298,513.000000 346.000000,513.000000 
M82.914726,145.350967 
	C87.950455,151.437225 94.364853,154.964127 102.306091,154.967850 
	C205.468521,155.016174 308.631104,155.081070 411.793274,154.909592 
	C426.721802,154.884781 437.019257,142.953201 436.790588,128.684769 
	C436.552734,113.841919 425.515533,102.996834 410.656250,102.997543 
	C308.827087,103.002419 206.997864,103.038330 105.168800,102.935669 
	C95.882034,102.926308 88.310730,105.828972 82.040359,113.735229 
	C80.749054,116.823570 79.457741,119.911903 78.012917,123.661148 
	C78.064072,124.107620 78.115227,124.554092 77.898743,125.626305 
	C77.654663,126.417610 77.410591,127.208923 77.013100,128.660873 
	C77.064232,129.107162 77.115372,129.553452 77.014069,130.663025 
	C77.398170,131.441788 77.782272,132.220566 78.012909,133.660278 
	C78.064079,134.106766 78.115257,134.553268 78.015961,135.752884 
	C79.528046,138.780182 81.040123,141.807465 82.914726,145.350967 
M273.500000,283.000000 
	C319.327057,282.999969 365.154144,283.040497 410.981110,282.976837 
	C426.003510,282.955963 436.796387,271.586731 436.794678,256.997772 
	C436.792999,242.406387 425.997498,231.028290 410.976624,231.022141 
	C308.324066,230.980103 205.671478,230.979736 103.018936,231.022491 
	C87.996292,231.028748 77.203705,242.413284 77.205307,257.002167 
	C77.206909,271.593414 88.002274,282.962219 103.023300,282.977234 
	C159.515488,283.033783 216.007767,282.999969 273.500000,283.000000 
M305.500000,359.000000 
	C289.514343,359.000000 273.528656,358.997314 257.542999,359.000977 
	C247.620590,359.003235 240.035599,362.853851 234.707062,371.593933 
	C229.652054,379.885315 229.524902,388.467896 233.445038,396.590881 
	C237.736237,405.482788 245.424423,410.936371 255.753784,410.955688 
	C307.540619,411.052460 359.327820,411.052887 411.114655,410.966858 
	C426.155701,410.941895 436.870178,399.415680 436.794739,384.897003 
	C436.718658,370.257477 425.873322,359.039459 410.906555,359.016846 
	C376.104462,358.964203 341.302185,359.000031 305.500000,359.000000 
z"/>
<path fill="#FFFCFC" opacity="1.000000" stroke="none" 
	d="
M273.000000,283.000000 
	C216.007767,282.999969 159.515488,283.033783 103.023300,282.977234 
	C88.002274,282.962219 77.206909,271.593414 77.205307,257.002167 
	C77.203705,242.413284 87.996292,231.028748 103.018936,231.022491 
	C205.671478,230.979736 308.324066,230.980103 410.976624,231.022141 
	C425.997498,231.028290 436.792999,242.406387 436.794678,256.997772 
	C436.796387,271.586731 426.003510,282.955963 410.981110,282.976837 
	C365.154144,283.040497 319.327057,282.999969 273.000000,283.000000 
z"/>
<path fill="#FFFCFC" opacity="1.000000" stroke="none" 
	d="
M77.166512,129.999741 
	C77.115372,129.553452 77.064232,129.107162 77.403053,128.291855 
	C79.444992,127.143913 81.160713,126.373138 78.166382,125.000565 
	C78.115227,124.554092 78.064072,124.107620 78.438423,123.280815 
	C82.332909,120.503822 83.796661,117.349052 82.543732,113.167206 
	C88.310730,105.828972 95.882034,102.926308 105.168800,102.935669 
	C206.997864,103.038330 308.827087,103.002419 410.656250,102.997543 
	C425.515533,102.996834 436.552734,113.841919 436.790588,128.684769 
	C437.019257,142.953201 426.721802,154.884781 411.793274,154.909592 
	C308.631104,155.081070 205.468521,155.016174 102.306091,154.967850 
	C94.364853,154.964127 87.950455,151.437225 82.862030,144.642548 
	C83.445663,139.821060 82.091629,136.742325 78.166428,134.999756 
	C78.115257,134.553268 78.064079,134.106766 78.386299,133.279053 
	C78.228630,131.931793 77.697571,130.965775 77.166512,129.999741 
z"/>
<path fill="#FFFCFC" opacity="1.000000" stroke="none" 
	d="
M306.000000,359.000000 
	C341.302185,359.000031 376.104462,358.964203 410.906555,359.016846 
	C425.873322,359.039459 436.718658,370.257477 436.794739,384.897003 
	C436.870178,399.415680 426.155701,410.941895 411.114655,410.966858 
	C359.327820,411.052887 307.540619,411.052460 255.753784,410.955688 
	C245.424423,410.936371 237.736237,405.482788 233.445038,396.590881 
	C229.524902,388.467896 229.652054,379.885315 234.707062,371.593933 
	C240.035599,362.853851 247.620590,359.003235 257.542999,359.000977 
	C273.528656,358.997314 289.514343,359.000000 306.000000,359.000000 
z"/>
<path fill="#FFFCFC" opacity="1.000000" stroke="none" 
	d="
M82.292046,113.451218 
	C83.796661,117.349052 82.332909,120.503822 78.515182,122.950363 
	C79.457741,119.911903 80.749054,116.823570 82.292046,113.451218 
z"/>
<path fill="#FFFCFC" opacity="1.000000" stroke="none" 
	d="
M78.091194,135.376312 
	C82.091629,136.742325 83.445663,139.821060 82.680771,144.384430 
	C81.040123,141.807465 79.528046,138.780182 78.091194,135.376312 
z"/>
<path fill="#FFFCFC" opacity="1.000000" stroke="none" 
	d="
M78.032562,125.313431 
	C81.160713,126.373138 79.444992,127.143913 77.479759,127.961533 
	C77.410591,127.208923 77.654663,126.417610 78.032562,125.313431 
z"/>
<path fill="#FFFCFC" opacity="1.000000" stroke="none" 
	d="
M77.090286,130.331390 
	C77.697571,130.965775 78.228630,131.931793 78.463036,132.948578 
	C77.782272,132.220566 77.398170,131.441788 77.090286,130.331390 
z"/>
</svg>